<svg width="18" height="20" viewBox="0 0 18 20" fill="none" xmlns="http://www.w3.org/2000/svg">
<path d="M11.5255 10.4062C13.393 11.0128 15.0333 12.2756 16.2006 14.0052C17.3678 15.7348 17.9992 17.8381 18 20H0C0.000392086 17.838 0.631571 15.7344 1.79888 14.0047C2.9662 12.275 4.60673 11.0124 6.47446 10.4062L9 14.6154L11.5255 10.4062ZM13.5 5C13.5 6.32608 13.0259 7.59785 12.182 8.53553C11.3381 9.47322 10.1935 10 9 10C7.80653 10 6.66193 9.47322 5.81802 8.53553C4.97411 7.59785 4.5 6.32608 4.5 5C4.5 3.67392 4.97411 2.40215 5.81802 1.46447C6.66193 0.526784 7.80653 0 9 0C10.1935 0 11.3381 0.526784 12.182 1.46447C13.0259 2.40215 13.5 3.67392 13.5 5Z" fill="#FFB781"/>
</svg>
