<svg width="19" height="20" viewBox="0 0 19 20" fill="none" xmlns="http://www.w3.org/2000/svg">
<path fill-rule="evenodd" clip-rule="evenodd" d="M1.69769 10C1.69827 8.21989 2.24817 6.48815 3.26461 5.06546C4.28105 3.64278 5.70902 2.60615 7.33356 2.11162C8.9581 1.61709 10.6913 1.69144 12.2722 2.32346C13.8531 2.95548 15.1963 4.11098 16.0994 5.616C17.0025 7.12103 17.4167 8.89413 17.2796 10.6684C17.1426 12.4426 16.4618 14.122 15.3396 15.4538C14.2174 16.7855 12.7147 17.6975 11.0575 18.0524C9.40037 18.4073 7.67853 18.186 6.1512 17.4218C5.9739 17.3061 5.76208 17.2638 5.55685 17.3032L5.55007 17.3047L2.16991 17.9474L3.09264 15.3621L3.09399 15.3578C3.14491 15.2132 3.15966 15.0573 3.13685 14.905C3.11404 14.7526 3.05443 14.609 2.96373 14.4879C2.13388 13.1545 1.69415 11.594 1.69905 10M9.5015 19.9986C8.15116 19.9997 6.81609 19.6978 5.58535 19.113L1.00022 19.9843C0.85285 20.0122 0.701091 19.9985 0.56037 19.9446C0.419649 19.8908 0.294984 19.7986 0.199044 19.6776C0.103105 19.5566 0.0393125 19.411 0.0141506 19.2557C-0.0110113 19.1003 0.0033544 18.9407 0.0557876 18.793L1.3571 15.1507C0.27632 13.2575 -0.178585 11.0408 0.0633926 8.84681C0.30537 6.65279 1.23061 4.60483 2.6947 3.02259C4.15879 1.44034 6.07934 0.412859 8.15657 0.100509C10.2338 -0.211841 12.3508 0.20852 14.1772 1.29598C16.0036 2.38344 17.4366 4.0768 18.2525 6.11176C19.0683 8.14671 19.2212 10.4087 18.6872 12.5448C18.1533 14.6808 16.9625 16.5707 15.3007 17.9194C13.639 19.268 11.5998 19.9997 9.5015 20M5.77261 11.4284C5.41272 11.4284 5.06758 11.2779 4.8131 11.01C4.55862 10.7421 4.41566 10.3788 4.41566 10C4.41566 9.62118 4.55862 9.25787 4.8131 8.99C5.06758 8.72213 5.41272 8.57164 5.77261 8.57164C6.13249 8.57164 6.47764 8.72213 6.73212 8.99C6.98659 9.25787 7.12956 9.62118 7.12956 10C7.12956 10.3788 6.98659 10.7421 6.73212 11.01C6.47764 11.2779 6.13249 11.4284 5.77261 11.4284ZM10.8612 10C10.8612 9.62118 10.7182 9.25787 10.4637 8.99C10.2092 8.72213 9.8641 8.57164 9.50421 8.57164C9.14433 8.57164 8.79918 8.72213 8.54471 8.99C8.29023 9.25787 8.14727 9.62118 8.14727 10C8.14727 10.3788 8.29023 10.7421 8.54471 11.01C8.79918 11.2779 9.14433 11.4284 9.50421 11.4284C9.8641 11.4284 10.2092 11.2779 10.4637 11.01C10.7182 10.7421 10.8612 10.3788 10.8612 10ZM13.2358 11.4284C12.8759 11.4284 12.5308 11.2779 12.2763 11.01C12.0218 10.7421 11.8789 10.3788 11.8789 10C11.8789 9.62118 12.0218 9.25787 12.2763 8.99C12.5308 8.72213 12.8759 8.57164 13.2358 8.57164C13.5957 8.57164 13.9409 8.72213 14.1953 8.99C14.4498 9.25787 14.5928 9.62118 14.5928 10C14.5928 10.3788 14.4498 10.7421 14.1953 11.01C13.9409 11.2779 13.5957 11.4284 13.2358 11.4284Z" fill="#FFB781"/>
</svg>
