<svg width="14" height="17" viewBox="0 0 14 17" fill="none" xmlns="http://www.w3.org/2000/svg">
<g clip-path="url(#clip0_10_102)">
<path fill-rule="evenodd" clip-rule="evenodd" d="M12.918 1.97079C12.918 2.22959 12.876 2.48587 12.7945 2.72497C12.7129 2.96408 12.5933 3.18134 12.4426 3.36434C12.2919 3.54735 12.113 3.69251 11.9161 3.79155C11.7192 3.8906 11.5081 3.94157 11.295 3.94157C11.0819 3.94157 10.8708 3.8906 10.6739 3.79155C10.477 3.69251 10.2981 3.54735 10.1474 3.36434C9.99666 3.18134 9.87711 2.96408 9.79554 2.72497C9.71398 2.48587 9.672 2.22959 9.672 1.97079C9.672 1.4481 9.84299 0.946824 10.1474 0.57723C10.4517 0.207636 10.8646 0 11.295 0C11.7254 0 12.1383 0.207636 12.4426 0.57723C12.747 0.946824 12.918 1.4481 12.918 1.97079ZM13.942 8.08714C13.9047 8.2891 13.8119 8.46962 13.6789 8.59896C13.5458 8.7283 13.3804 8.79876 13.21 8.79871H7.098C6.89909 8.79871 6.70832 8.70276 6.56767 8.53197C6.42702 8.36118 6.348 8.12954 6.348 7.888C6.348 7.64646 6.42702 7.41482 6.56767 7.24403C6.70832 7.07324 6.89909 6.97729 7.098 6.97729H8.694C8.87465 6.2168 9.27528 5.56105 9.82226 5.13057C10.3692 4.7001 11.0258 4.52383 11.6712 4.63417C12.3167 4.74451 12.9077 5.13405 13.3355 5.73117C13.7633 6.32829 13.9993 7.09287 14 7.88436C14 7.95794 13.9795 8.02937 13.942 8.08714ZM1.359 4.03629C1.359 4.61952 1.5498 5.17886 1.88943 5.59126C2.22906 6.00367 2.68969 6.23536 3.17 6.23536C3.65031 6.23536 4.11094 6.00367 4.45057 5.59126C4.7902 5.17886 4.981 4.61952 4.981 4.03629C4.981 3.45306 4.7902 2.89371 4.45057 2.48131C4.11094 2.0689 3.65031 1.83721 3.17 1.83721C2.68969 1.83721 2.22906 2.0689 1.88943 2.48131C1.5498 2.89371 1.359 3.45306 1.359 4.03629ZM0 10.9516C-6.20321e-09 10.4461 0.0819945 9.9456 0.241302 9.47859C0.400609 9.01157 0.63411 8.58723 0.928472 8.22979C1.22283 7.87235 1.57229 7.58881 1.95689 7.39537C2.3415 7.20192 2.75371 7.10236 3.17 7.10236C3.58629 7.10236 3.9985 7.20192 4.38311 7.39537C4.76771 7.58881 5.11717 7.87235 5.41153 8.22979C5.70589 8.58723 5.93939 9.01157 6.0987 9.47859C6.25801 9.9456 6.34 10.4461 6.34 10.9516V11.9935C6.34 12.1545 6.28732 12.309 6.19355 12.4228C6.09979 12.5367 5.97261 12.6006 5.84 12.6006H4.98L4.582 16.4681C4.56689 16.615 4.50815 16.75 4.41682 16.848C4.32549 16.9459 4.20785 17 4.086 17H2.253C2.13115 17 2.01351 16.9459 1.92218 16.848C1.83085 16.75 1.77211 16.615 1.757 16.4681L1.358 12.6006H0.5C0.367392 12.6006 0.240215 12.5367 0.146447 12.4228C0.0526784 12.309 0 12.1545 0 11.9935V10.9516Z" fill="#FFB781"/>
</g>
<defs>
<clipPath id="clip0_10_102">
<rect width="14" height="17" fill="white"/>
</clipPath>
</defs>
</svg>
