<svg width="19" height="20" viewBox="0 0 19 20" fill="none" xmlns="http://www.w3.org/2000/svg">
<path d="M9.12341 12.0149V19.3166H3.52703e-08C-0.000107271 18.2725 0.244639 17.2403 0.717979 16.2887C1.19132 15.3371 1.88241 14.4877 2.74535 13.7971C3.60829 13.1065 4.62331 12.5904 5.72298 12.2831C6.82266 11.9758 7.9818 11.8844 9.12341 12.0149ZM8.10969 11.038C4.74924 11.038 2.02742 8.56828 2.02742 5.51902C2.02742 2.46976 4.74924 0 8.10969 0C11.4701 0 14.192 2.46976 14.192 5.51902C14.192 8.56828 11.4701 11.038 8.10969 11.038ZM13.9821 17.3978L17.5656 14.1462L19 15.4468L13.9821 20L10.3976 16.7475L11.832 15.4468L13.9821 17.3978Z" fill="#FFB781"/>
</svg>
