<svg width="18" height="20" viewBox="0 0 18 20" fill="none" xmlns="http://www.w3.org/2000/svg">
<path d="M1.6875 1.07143V17.8571H17.1562C17.38 17.8571 17.5946 17.97 17.7529 18.171C17.9111 18.3719 18 18.6444 18 18.9286C18 19.2127 17.9111 19.4853 17.7529 19.6862C17.5946 19.8871 17.38 20 17.1562 20H0.84375C0.619974 20 0.405362 19.8871 0.247129 19.6862C0.0888948 19.4853 0 19.2127 0 18.9286L0 1.07143C0 0.787268 0.0888948 0.514746 0.247129 0.313814C0.405362 0.112882 0.619974 0 0.84375 0C1.06753 0 1.28214 0.112882 1.44037 0.313814C1.59861 0.514746 1.6875 0.787268 1.6875 1.07143ZM17.7525 4.68571L11.8462 12.1857C11.688 12.3864 11.4736 12.4991 11.25 12.4991C11.0264 12.4991 10.812 12.3864 10.6538 12.1857L7.875 8.65714L4.815 12.5429C4.65509 12.7323 4.44347 12.8356 4.22478 12.8308C4.00609 12.826 3.79741 12.7135 3.64275 12.5171C3.48809 12.3207 3.39954 12.0558 3.39576 11.7781C3.39198 11.5004 3.47328 11.2316 3.6225 11.0286L7.27875 6.38571C7.43695 6.18507 7.65141 6.07237 7.875 6.07237C8.09859 6.07237 8.31305 6.18507 8.47125 6.38571L11.25 9.91429L16.56 3.17143C16.7199 2.98194 16.9315 2.87871 17.1502 2.88351C17.3689 2.8883 17.5776 3.00075 17.7323 3.19714C17.8869 3.39354 17.9755 3.65853 17.9792 3.93623C17.983 4.21394 17.9017 4.48265 17.7525 4.68571Z" fill="#FFB781"/>
</svg>
