<svg width="18" height="20" viewBox="0 0 18 20" fill="none" xmlns="http://www.w3.org/2000/svg">
<path d="M9 0C9.69619 0 10.3639 0.508619 10.8562 1.41397C11.3484 2.31932 11.625 3.54723 11.625 4.82759C11.625 6.10794 11.3484 7.33586 10.8562 8.24121C10.3639 9.14655 9.69619 9.65517 9 9.65517C8.30381 9.65517 7.63613 9.14655 7.14384 8.24121C6.65156 7.33586 6.375 6.10794 6.375 4.82759C6.375 3.54723 6.65156 2.31932 7.14384 1.41397C7.63613 0.508619 8.30381 0 9 0ZM3.75 3.44828C4.17 3.44828 4.56 3.65517 4.8975 4.02759C4.785 6 5.1 7.95862 5.745 9.48966C5.37 10.8138 4.62 11.7241 3.75 11.7241C3.15326 11.7241 2.58097 11.2882 2.15901 10.5122C1.73705 9.73615 1.5 8.68365 1.5 7.58621C1.5 6.48876 1.73705 5.43626 2.15901 4.66025C2.58097 3.88423 3.15326 3.44828 3.75 3.44828ZM14.25 3.44828C14.8467 3.44828 15.419 3.88423 15.841 4.66025C16.2629 5.43626 16.5 6.48876 16.5 7.58621C16.5 8.68365 16.2629 9.73615 15.841 10.5122C15.419 11.2882 14.8467 11.7241 14.25 11.7241C13.38 11.7241 12.63 10.8138 12.255 9.48966C12.9086 7.93687 13.2121 5.98091 13.1025 4.02759C13.44 3.65517 13.83 3.44828 14.25 3.44828ZM4.125 17.5862C4.125 14.731 6.3075 12.4138 9 12.4138C11.6925 12.4138 13.875 14.731 13.875 17.5862V20H4.125V17.5862ZM0 20V17.931C0 16.0138 1.4175 14.4 3.3375 13.931C2.895 14.869 2.625 16.1655 2.625 17.5862V20H0ZM18 20H15.375V17.5862C15.375 16.1655 15.105 14.869 14.6625 13.931C16.5825 14.4 18 16.0138 18 17.931V20Z" fill="#FFB781"/>
</svg>
