<svg width="14" height="17" viewBox="0 0 14 17" fill="none" xmlns="http://www.w3.org/2000/svg">
<g clip-path="url(#clip0_10_86)">
<path d="M14 14.5714C14 14.4794 13.9693 14.3912 13.9146 14.3261C13.8599 14.261 13.7857 14.2245 13.7083 14.2245H12.6875C12.6488 14.2245 12.6117 14.2062 12.5844 14.1737C12.557 14.1411 12.5417 14.097 12.5417 14.051V11.102C12.5417 10.918 12.4802 10.7415 12.3708 10.6114C12.2614 10.4813 12.113 10.4082 11.9583 10.4082C11.8036 10.4082 11.6552 10.4813 11.5459 10.6114C11.4365 10.7415 11.375 10.918 11.375 11.102V14.051C11.375 14.097 11.3596 14.1411 11.3323 14.1737C11.3049 14.2062 11.2678 14.2245 11.2292 14.2245H2.77083C2.73216 14.2245 2.69506 14.2062 2.66771 14.1737C2.64036 14.1411 2.625 14.097 2.625 14.051V6.70979C2.625 6.58649 2.66618 6.46825 2.73947 6.38106C2.81277 6.29387 2.91218 6.24489 3.01583 6.24489H4.375C4.52971 6.24489 4.67808 6.17179 4.78748 6.04166C4.89687 5.91154 4.95833 5.73504 4.95833 5.55102C4.95833 5.36699 4.89687 5.1905 4.78748 5.06037C4.67808 4.93024 4.52971 4.85714 4.375 4.85714H3.01583C2.60323 4.85897 2.20797 5.05474 1.91621 5.40179C1.62446 5.74883 1.45987 6.219 1.45833 6.70979V14.051C1.45833 14.097 1.44297 14.1411 1.41562 14.1737C1.38827 14.2062 1.35118 14.2245 1.3125 14.2245H0.291667C0.214312 14.2245 0.140125 14.261 0.0854272 14.3261C0.0307291 14.3912 0 14.4794 0 14.5714C0 15.2155 0.215104 15.8332 0.59799 16.2887C0.980877 16.7441 1.50018 17 2.04167 17H11.9583C12.4998 17 13.0191 16.7441 13.402 16.2887C13.7849 15.8332 14 15.2155 14 14.5714Z" fill="#FFB781"/>
<path d="M6.125 9.91643C6.16747 9.9156 6.20928 9.90351 6.2475 9.88101L8.225 8.7406C8.24599 8.7286 8.26889 8.72238 8.29209 8.72238C8.31528 8.72238 8.33819 8.7286 8.35917 8.7406C8.87281 9.08019 9.44364 9.27254 10.0279 9.30291C10.6123 9.33328 11.1945 9.20087 11.7302 8.91581C12.2658 8.63076 12.7407 8.20062 13.1183 7.65835C13.4959 7.11607 13.7664 6.47605 13.9089 5.78728C14.0513 5.09852 14.0621 4.3793 13.9404 3.68469C13.8186 2.99008 13.5676 2.33852 13.2065 1.7799C12.8454 1.22129 12.3838 0.770441 11.857 0.461886C11.3303 0.153331 10.7523 -0.0047449 10.1675 -0.000234174C9.66821 0.000583703 9.17407 0.12225 8.71395 0.357652C8.25384 0.593054 7.83698 0.937469 7.48775 1.37076C7.13853 1.80406 6.86393 2.31754 6.68003 2.88119C6.49612 3.44485 6.40659 4.04736 6.41667 4.65351C6.39853 5.41231 6.53056 6.16533 6.80167 6.84935C6.81155 6.87483 6.81667 6.90264 6.81667 6.93081C6.81667 6.95897 6.81155 6.98678 6.80167 7.01226L5.8625 9.41351C5.83703 9.47878 5.82896 9.55208 5.83941 9.62318C5.84987 9.69428 5.87833 9.75965 5.92084 9.81018C5.94688 9.84421 5.9785 9.87124 6.01366 9.88954C6.04882 9.90784 6.08675 9.917 6.125 9.91643ZM11.5208 3.71852C11.5208 4.1412 11.3826 4.54658 11.1364 4.84547C10.8903 5.14435 10.5564 5.31226 10.2083 5.31226C10.0923 5.31226 9.98102 5.25629 9.89898 5.15667C9.81693 5.05704 9.77084 4.92191 9.77084 4.78101C9.77084 4.64012 9.81693 4.50499 9.89898 4.40536C9.98102 4.30574 10.0923 4.24976 10.2083 4.24976C10.2949 4.24976 10.3795 4.21861 10.4514 4.16023C10.5233 4.10186 10.5794 4.01889 10.6125 3.92182C10.6456 3.82474 10.6543 3.71793 10.6374 3.61487C10.6205 3.51182 10.5789 3.41716 10.5177 3.34286C10.4565 3.26857 10.3786 3.21797 10.2937 3.19747C10.2088 3.17697 10.1209 3.18749 10.0409 3.2277C9.96097 3.26791 9.89264 3.336 9.84457 3.42337C9.79649 3.51073 9.77084 3.61344 9.77084 3.71852C9.77084 3.85941 9.72474 3.99454 9.6427 4.09417C9.56065 4.19379 9.44937 4.24976 9.33334 4.24976C9.2173 4.24976 9.10602 4.19379 9.02398 4.09417C8.94193 3.99454 8.89584 3.85941 8.89584 3.71852C8.89584 3.29583 9.03412 2.89045 9.28026 2.59156C9.5264 2.29268 9.86024 2.12477 10.2083 2.12477C10.5564 2.12477 10.8903 2.29268 11.1364 2.59156C11.3826 2.89045 11.5208 3.29583 11.5208 3.71852ZM10.2083 7.0831C10.1218 7.0831 10.0372 7.05194 9.96527 6.99357C9.89333 6.93519 9.83725 6.85222 9.80414 6.75515C9.77103 6.65807 9.76236 6.55126 9.77924 6.44821C9.79612 6.34515 9.83779 6.25049 9.89898 6.1762C9.96016 6.1019 10.0381 6.0513 10.123 6.03081C10.2078 6.01031 10.2958 6.02083 10.3758 6.06104C10.4557 6.10125 10.524 6.16934 10.5721 6.2567C10.6202 6.34407 10.6458 6.44678 10.6458 6.55185C10.6443 6.69217 10.5977 6.82624 10.516 6.92547C10.4343 7.0247 10.3239 7.08126 10.2083 7.0831Z" fill="#FFB781"/>
</g>
<defs>
<clipPath id="clip0_10_86">
<rect width="14" height="17" fill="white"/>
</clipPath>
</defs>
</svg>
