<svg width="13" height="11" viewBox="0 0 13 11" fill="none" xmlns="http://www.w3.org/2000/svg">
<path d="M1.3 11C0.9425 11 0.636567 10.8655 0.3822 10.5964C0.127833 10.3274 0.000433333 10.0036 0 9.625V1.375C0 0.996875 0.1274 0.673292 0.3822 0.40425C0.637 0.135208 0.942933 0.000458333 1.3 0H11.7C12.0575 0 12.3636 0.13475 12.6184 0.40425C12.8732 0.67375 13.0004 0.997333 13 1.375V9.625C13 10.0031 12.8728 10.3269 12.6184 10.5964C12.3641 10.8659 12.0579 11.0005 11.7 11H1.3ZM6.5 6.1875L11.7 2.75V1.375L6.5 4.8125L1.3 1.375V2.75L6.5 6.1875Z" fill="#FFB781"/>
</svg>
