<svg width="12" height="15" viewBox="0 0 12 15" fill="none" xmlns="http://www.w3.org/2000/svg">
<path d="M5.9997 1C5.34305 0.999956 4.69283 1.11288 4.08615 1.33233C3.47948 1.55178 2.92824 1.87345 2.46392 2.27897C1.9996 2.6845 1.63129 3.16593 1.38003 3.69578C1.12876 4.22563 0.999462 4.79352 0.999512 5.36702C0.999512 8.7847 4.81692 12.8974 5.81727 13.9077C5.87101 13.9614 5.94689 13.9943 6.02833 13.9993C6.10977 14.0043 6.19018 13.981 6.25198 13.9344L6.28252 13.9077C7.2695 12.8934 10.9995 8.7847 10.9995 5.36669C10.9995 4.79325 10.8702 4.22542 10.6189 3.69563C10.3677 3.16584 9.99938 2.68446 9.5351 2.27897C9.07083 1.87349 8.51965 1.55184 7.91305 1.33239C7.30644 1.11295 6.65629 1 5.9997 1ZM5.9997 6.55203C5.66432 6.55203 5.33646 6.46517 5.0576 6.30243C4.77874 6.1397 4.56139 5.9084 4.43305 5.63778C4.3047 5.36716 4.27112 5.06938 4.33655 4.78209C4.40198 4.4948 4.56348 4.23091 4.80064 4.02379C5.03779 3.81667 5.33994 3.67561 5.66888 3.61847C5.99782 3.56132 6.33878 3.59065 6.64863 3.70275C6.95849 3.81484 7.22333 4.00467 7.40966 4.24822C7.59599 4.49177 7.69544 4.7781 7.69544 5.07102V5.07469C7.69433 5.46684 7.51518 5.8426 7.19729 6.11955C6.8794 6.3965 6.44871 6.55203 5.9997 6.55203Z" stroke="#FFB781" stroke-linecap="round" stroke-linejoin="round"/>
</svg>
