<svg width="10" height="13" viewBox="0 0 10 13" fill="none" xmlns="http://www.w3.org/2000/svg">
<path d="M6.66618 13C5.57359 13 4.60136 12.5968 3.74951 11.7903C2.89766 10.9838 2.29581 9.94259 1.94396 8.66667H-0.000488281V7.22222H1.69396C1.66618 6.93333 1.6547 6.66563 1.65951 6.41911C1.66433 6.17259 1.67581 5.95881 1.69396 5.77778H-0.000488281V4.33333H1.94396C2.29581 3.05741 2.89766 2.0162 3.74951 1.20972C4.60136 0.403241 5.57359 0 6.66618 0C7.30507 0 7.90933 0.147574 8.47896 0.442722C9.04859 0.73787 9.55544 1.144 9.99951 1.66111L9.20785 2.67222C8.86525 2.28704 8.47877 1.98611 8.0484 1.76944C7.61803 1.55278 7.15729 1.44444 6.66618 1.44444C5.87914 1.44444 5.17544 1.71239 4.55507 2.24828C3.9347 2.78417 3.4671 3.47918 3.15229 4.33333H6.66618V5.77778H2.81896C2.78192 6.10278 2.76803 6.38878 2.77729 6.63578C2.78655 6.88278 2.80044 7.07826 2.81896 7.22222H6.66618V8.66667H3.15229C3.4671 9.5213 3.9347 10.2166 4.55507 10.7524C5.17544 11.2883 5.87914 11.556 6.66618 11.5556C7.15692 11.5556 7.61766 11.4472 8.0484 11.2306C8.47914 11.0139 8.86562 10.713 9.20785 10.3278L9.99951 11.3389C9.55507 11.8565 9.04803 12.2629 8.4784 12.558C7.90877 12.8531 7.3047 13.0005 6.66618 13Z" fill="#FFB781"/>
</svg>
