<svg width="19" height="20" viewBox="0 0 19 20" fill="none" xmlns="http://www.w3.org/2000/svg">
<mask id="path-1-inside-1_9_894" fill="white">
<path d="M18.1812 20L10.9189 12.3564C10.3391 12.8764 9.67222 13.2788 8.91839 13.5636C8.16456 13.8484 7.40687 13.9908 6.6453 13.9908C4.78817 13.9908 3.21634 13.3142 1.92981 11.9609C0.643269 10.6077 0 8.95372 0 6.99909C0 5.04445 0.642495 3.38969 1.92749 2.03479C3.21248 0.679893 4.78354 0.00163043 6.64066 2.92717e-06C8.49779 -0.00162458 10.0704 0.675417 11.3585 2.03113C12.6466 3.38684 13.2906 5.04161 13.2906 6.99542C13.2906 7.84335 13.148 8.66402 12.8627 9.45743C12.5774 10.2508 12.2024 10.9295 11.7377 11.4934L19 19.1358L18.1812 20ZM6.64646 12.769C8.18505 12.769 9.48396 12.2116 10.5432 11.0967C11.6024 9.9819 12.132 8.61438 12.132 6.9942C12.132 5.37402 11.6024 4.00692 10.5432 2.89289C9.48396 1.77887 8.18505 1.22145 6.64646 1.22063C5.10788 1.21982 3.80858 1.77724 2.74858 2.89289C1.68858 4.00855 1.15897 5.37565 1.15974 6.9942C1.16051 8.61276 1.69013 9.97986 2.74858 11.0955C3.80704 12.2112 5.10594 12.7686 6.6453 12.7678"/>
</mask>
<path d="M18.1812 20L10.9189 12.3564C10.3391 12.8764 9.67222 13.2788 8.91839 13.5636C8.16456 13.8484 7.40687 13.9908 6.6453 13.9908C4.78817 13.9908 3.21634 13.3142 1.92981 11.9609C0.643269 10.6077 0 8.95372 0 6.99909C0 5.04445 0.642495 3.38969 1.92749 2.03479C3.21248 0.679893 4.78354 0.00163043 6.64066 2.92717e-06C8.49779 -0.00162458 10.0704 0.675417 11.3585 2.03113C12.6466 3.38684 13.2906 5.04161 13.2906 6.99542C13.2906 7.84335 13.148 8.66402 12.8627 9.45743C12.5774 10.2508 12.2024 10.9295 11.7377 11.4934L19 19.1358L18.1812 20ZM6.64646 12.769C8.18505 12.769 9.48396 12.2116 10.5432 11.0967C11.6024 9.9819 12.132 8.61438 12.132 6.9942C12.132 5.37402 11.6024 4.00692 10.5432 2.89289C9.48396 1.77887 8.18505 1.22145 6.64646 1.22063C5.10788 1.21982 3.80858 1.77724 2.74858 2.89289C1.68858 4.00855 1.15897 5.37565 1.15974 6.9942C1.16051 8.61276 1.69013 9.97986 2.74858 11.0955C3.80704 12.2112 5.10594 12.7686 6.6453 12.7678" fill="#FFB781"/>
<path d="M18.1812 20L16.0064 22.0664L18.1843 24.3587L20.359 22.0633L18.1812 20ZM10.9189 12.3564L13.0938 10.29L11.0861 8.17696L8.91608 10.1229L10.9189 12.3564ZM6.6453 13.9908V10.9908V13.9908ZM11.7377 11.4934L9.42244 9.5857L7.7338 11.6351L9.56301 13.56L11.7377 11.4934ZM19 19.1358L21.1778 21.1991L23.1356 19.1327L21.1747 17.0692L19 19.1358ZM18.1812 20L20.3561 17.9336L13.0938 10.29L10.9189 12.3564L8.74407 14.4228L16.0064 22.0664L18.1812 20ZM10.9189 12.3564L8.91608 10.1229C8.62185 10.3868 8.27724 10.5989 7.85808 10.7573L8.91839 13.5636L9.9787 16.37C11.0672 15.9587 12.0563 15.3661 12.9218 14.5899L10.9189 12.3564ZM8.91839 13.5636L7.85808 10.7573C7.4232 10.9216 7.02396 10.9908 6.6453 10.9908V13.9908V16.9908C7.78977 16.9908 8.90592 16.7753 9.9787 16.37L8.91839 13.5636ZM6.6453 13.9908V10.9908C5.61519 10.9908 4.82775 10.6551 4.10406 9.89391L1.92981 11.9609L-0.244447 14.028C1.60494 15.9733 3.96116 16.9908 6.6453 16.9908V13.9908ZM1.92981 11.9609L4.10406 9.89391C3.37446 9.12646 3 8.22412 3 6.99909H0H-3C-3 9.68332 -2.08792 12.0889 -0.244447 14.028L1.92981 11.9609ZM0 6.99909H3C3 5.77295 3.37451 4.86861 4.10422 4.09921L1.92749 2.03479L-0.249247 -0.0296314C-2.08952 1.91076 -3 4.31596 -3 6.99909H0ZM1.92749 2.03479L4.10422 4.09921C4.82688 3.33723 5.61357 3.0009 6.64329 3L6.64066 2.92717e-06L6.63804 -3C3.9535 -2.99764 1.59807 -1.97745 -0.249247 -0.0296314L1.92749 2.03479ZM6.64066 2.92717e-06L6.64329 3C7.67076 2.9991 8.45805 3.33386 9.18361 4.09751L11.3585 2.03113L13.5334 -0.0352523C11.6827 -1.98302 9.32483 -3.00235 6.63804 -3L6.64066 2.92717e-06ZM11.3585 2.03113L9.18361 4.09751C9.91628 4.86865 10.2906 5.77261 10.2906 6.99542H13.2906H16.2906C16.2906 4.3106 15.3769 1.90503 13.5334 -0.0352523L11.3585 2.03113ZM13.2906 6.99542H10.2906C10.2906 7.49932 10.2072 7.97643 10.0396 8.44232L12.8627 9.45743L15.6857 10.4725C16.0888 9.35162 16.2906 8.18739 16.2906 6.99542H13.2906ZM12.8627 9.45743L10.0396 8.44232C9.85336 8.96032 9.63691 9.32541 9.42244 9.5857L11.7377 11.4934L14.053 13.4012C14.7679 12.5336 15.3014 11.5414 15.6857 10.4725L12.8627 9.45743ZM11.7377 11.4934L9.56301 13.56L16.8253 21.2024L19 19.1358L21.1747 17.0692L13.9124 9.42689L11.7377 11.4934ZM19 19.1358L16.8222 17.0725L16.0034 17.9367L18.1812 20L20.359 22.0633L21.1778 21.1991L19 19.1358ZM6.64646 12.769V15.769C9.00684 15.769 11.0921 14.8744 12.7181 13.1631L10.5432 11.0967L8.36831 9.03036C7.87579 9.54874 7.36326 9.769 6.64646 9.769V12.769ZM10.5432 11.0967L12.7181 13.1631C14.3375 11.4586 15.132 9.33803 15.132 6.9942H12.132H9.13203C9.13203 7.89073 8.86729 8.50518 8.36831 9.03036L10.5432 11.0967ZM12.132 6.9942H15.132C15.132 4.65036 14.3375 2.52973 12.7173 0.825718L10.5432 2.89289L8.36907 4.96007C8.86733 5.48411 9.13203 6.09769 9.13203 6.9942H12.132ZM10.5432 2.89289L12.7173 0.825718C11.0916 -0.884143 9.00714 -1.77812 6.64805 -1.77937L6.64646 1.22063L6.64488 4.22063C7.36296 4.22101 7.87636 4.44187 8.36907 4.96007L10.5432 2.89289ZM6.64646 1.22063L6.64805 -1.77937C4.28644 -1.78062 2.20032 -0.885505 0.573709 0.826511L2.74858 2.89289L4.92345 4.95927C5.41684 4.43998 5.92932 4.22025 6.64488 4.22063L6.64646 1.22063ZM2.74858 2.89289L0.573709 0.826511C-1.0459 2.53116 -1.84138 4.65144 -1.84026 6.99564L1.15974 6.9942L4.15974 6.99277C4.15931 6.09986 4.42306 5.48594 4.92345 4.95927L2.74858 2.89289ZM1.15974 6.9942L-1.84026 6.99564C-1.83914 9.33759 -1.04455 11.4562 0.572203 13.1603L2.74858 11.0955L4.92496 9.03072C4.4248 8.50353 4.16017 7.88792 4.15974 6.99277L1.15974 6.9942ZM2.74858 11.0955L0.572203 13.1603C2.19813 14.8741 4.28486 15.769 6.64689 15.7678L6.6453 12.7678L6.64372 9.76778C5.92702 9.76816 5.41594 9.54824 4.92496 9.03072L2.74858 11.0955Z" fill="#FFB781" mask="url(#path-1-inside-1_9_894)"/>
</svg>
