<svg width="14" height="17" viewBox="0 0 14 17" fill="none" xmlns="http://www.w3.org/2000/svg">
<path d="M5.08458 17L4.80597 14.28C4.65506 14.2092 4.51297 14.1242 4.3797 14.025C4.24643 13.9258 4.11572 13.8196 3.98756 13.7063L1.91542 14.7688L0 10.7313L1.79353 9.07375C1.78192 8.97458 1.77612 8.8791 1.77612 8.7873V8.21355C1.77612 8.12118 1.78192 8.02542 1.79353 7.92625L0 6.26875L1.91542 2.23125L3.98756 3.29375C4.11526 3.18042 4.24876 3.07417 4.38806 2.975C4.52736 2.87583 4.66667 2.79083 4.80597 2.72L5.08458 0H8.91542L9.19403 2.72C9.34494 2.79083 9.48726 2.87583 9.621 2.975C9.75473 3.07417 9.88521 3.18042 10.0124 3.29375L12.0846 2.23125L14 6.26875L12.2065 7.92625C12.2181 8.02542 12.2239 8.12118 12.2239 8.21355V8.78645C12.2239 8.87882 12.2123 8.97458 12.1891 9.07375L13.9826 10.7313L12.0672 14.7688L10.0124 13.7063C9.88474 13.8196 9.75124 13.9258 9.61194 14.025C9.47264 14.1242 9.33333 14.2092 9.19403 14.28L8.91542 17H5.08458ZM6.30348 15.3H7.67911L7.92289 13.0475C8.28275 12.9342 8.61662 12.7679 8.92448 12.5486C9.23234 12.3293 9.51373 12.0635 9.76866 11.7513L11.4925 12.6225L12.1716 11.1775L10.6741 9.79625C10.7322 9.59792 10.7728 9.3891 10.796 9.1698C10.8192 8.9505 10.8308 8.72723 10.8308 8.5C10.8308 8.27277 10.8192 8.04978 10.796 7.83105C10.7728 7.61232 10.7322 7.40322 10.6741 7.20375L12.1716 5.8225L11.4925 4.3775L9.76866 5.27C9.51327 4.94417 9.23187 4.6716 8.92448 4.4523C8.61708 4.233 8.28322 4.0664 7.92289 3.9525L7.69652 1.7H6.3209L6.07712 3.9525C5.71725 4.06583 5.38362 4.23243 5.07622 4.4523C4.76882 4.67217 4.4872 4.93765 4.23134 5.24875L2.50746 4.3775L1.82836 5.8225L3.32587 7.1825C3.26783 7.395 3.2272 7.6075 3.20398 7.82C3.18076 8.0325 3.16915 8.25917 3.16915 8.5C3.16915 8.72667 3.18076 8.94625 3.20398 9.15875C3.2272 9.37125 3.26783 9.58375 3.32587 9.79625L1.82836 11.1775L2.50746 12.6225L4.23134 11.73C4.48673 12.0558 4.76836 12.3287 5.07622 12.5486C5.38408 12.7684 5.71771 12.9347 6.07712 13.0475L6.30348 15.3ZM7.03483 11.475C7.70813 11.475 8.28275 11.1846 8.75871 10.6038C9.23466 10.0229 9.47264 9.32167 9.47264 8.5C9.47264 7.67833 9.23466 6.97708 8.75871 6.39625C8.28275 5.81542 7.70813 5.525 7.03483 5.525C6.34992 5.525 5.77227 5.81542 5.30189 6.39625C4.83151 6.97708 4.59655 7.67833 4.59702 8.5C4.59748 9.32167 4.83267 10.0229 5.30259 10.6038C5.7725 11.1846 6.34992 11.475 7.03483 11.475Z" fill="#FFB781"/>
</svg>
