<svg width="17" height="20" viewBox="0 0 17 20" fill="none" xmlns="http://www.w3.org/2000/svg">
<path d="M9.16748 8.98288L13.2507 3.99493" stroke="#FFB781"/>
<path d="M14.0674 4.99252L12.4341 2.99734L14.4758 1.50095L15.2924 2.49854L14.0674 4.99252ZM1.83807 6.96276C1.44599 6.48423 1.17625 5.87678 1.06171 5.21435C0.947164 4.55193 0.992749 3.86311 1.19291 3.23177L2.35419 4.65034H3.9875V2.65516L2.82622 1.23659C3.34309 0.991521 3.90715 0.935377 4.44968 1.075C4.99221 1.21461 5.48979 1.54397 5.88179 2.02293C6.2738 2.50189 6.5433 3.10979 6.65748 3.77255C6.77165 4.43532 6.72557 5.12434 6.52483 5.75567L11.8086 12.2111C12.3254 11.9659 12.8894 11.9096 13.432 12.0491C13.9746 12.1885 14.4722 12.5177 14.8643 12.9966C15.2564 13.4755 15.526 14.0833 15.6403 14.746C15.7546 15.4087 15.7086 16.0978 15.508 16.7292L14.3475 15.3106H12.7142V17.3058L13.8755 18.7243C13.3588 18.9694 12.7949 19.0256 12.2524 18.8862C11.71 18.7467 11.2124 18.4176 10.8204 17.9389C10.4284 17.4602 10.1587 16.8526 10.0443 16.19C9.92992 15.5275 9.9757 14.8386 10.1761 14.2073L4.89071 7.75085C4.37409 7.99495 3.81054 8.05041 3.2686 7.91049C2.72665 7.77058 2.22966 7.44132 1.83807 6.96276Z" stroke="#FFB781" stroke-linejoin="round"/>
<path d="M8.51676 12.4744L3.94024 18.0649C3.83784 18.1903 3.71621 18.2897 3.58231 18.3575C3.44842 18.4254 3.30488 18.4603 3.15993 18.4603C3.01497 18.4603 2.87144 18.4254 2.73754 18.3575C2.60365 18.2897 2.48202 18.1903 2.37962 18.0649L1.73283 17.2748C1.63023 17.1498 1.54884 17.0012 1.4933 16.8376C1.43777 16.6741 1.40918 16.4987 1.40918 16.3216C1.40918 16.1446 1.43777 15.9692 1.4933 15.8057C1.54884 15.6421 1.63023 15.4935 1.73283 15.3685L6.30935 9.77795" stroke="#FFB781" stroke-linejoin="round"/>
</svg>
